<svg width="30" height="30" viewBox="0 0 30 30" fill="none" xmlns="http://www.w3.org/2000/svg">
    <g clip-path="url(#clip0_2041_2)">
        <path fill-rule="evenodd" clip-rule="evenodd" d="M3.01304 1.98085C5.89342 -0.89952 10.7542 -0.680553 12.7597 2.9131L13.8724 4.90687C15.182 7.25362 14.624 10.2146 12.7067 12.1553C12.6812 12.1903 12.5457 12.3873 12.5289 12.7316C12.5075 13.171 12.6635 14.1873 14.2381 15.7619C15.8121 17.3359 16.8282 17.4924 17.268 17.471C17.6126 17.4542 17.8098 17.3189 17.8447 17.2932C19.7855 15.3761 22.7465 14.8179 25.0932 16.1276L27.0869 17.2404C30.6806 19.2459 30.8995 24.1065 28.0192 26.9869C26.4785 28.5275 24.4299 29.8965 22.0225 29.9879C18.4549 30.1232 12.531 29.2018 6.66462 23.3354C0.79818 17.4689 -0.123125 11.5452 0.0121096 7.97754C0.103386 5.57015 1.47235 3.52154 3.01304 1.98085ZM10.5141 4.16635C9.48707 2.32617 6.72736 1.90341 4.83148 3.79928C3.50219 5.12856 2.63801 6.59579 2.58193 8.07497C2.46914 11.0501 3.20367 16.2376 8.48306 21.5169C13.7625 26.7963 18.9499 27.5308 21.9251 27.4179C23.4043 27.3619 24.8715 26.4978 26.2007 25.1684C28.0966 23.2726 27.6738 20.5129 25.8337 19.486L23.8399 18.3733C22.5997 17.681 20.8575 17.9172 19.6346 19.1402C19.5144 19.2602 18.7498 19.9737 17.393 20.0397C16.0038 20.1073 14.3224 19.483 12.4197 17.5804C10.5164 15.677 9.89231 13.9951 9.96037 12.6058C10.0269 11.2488 10.7404 10.4849 10.8598 10.3654C12.0827 9.14251 12.3189 7.40036 11.6268 6.16012L10.5141 4.16635Z" fill="white"/>
    </g>
    <defs>
        <clipPath id="clip0_2041_2">
            <rect width="30" height="30" fill="white"/>
        </clipPath>
    </defs>
</svg>
